<?xml version="1.0" encoding="UTF-8" standalone="no"?>
<!DOCTYPE svg PUBLIC "-//W3C//DTD SVG 1.1//EN" "http://www.w3.org/Graphics/SVG/1.1/DTD/svg11.dtd">
<svg width="100%" height="100%" viewBox="0 0 1000 1000" version="1.1" xmlns="http://www.w3.org/2000/svg" xmlns:xlink="http://www.w3.org/1999/xlink" xml:space="preserve" xmlns:serif="http://www.serif.com/" style="fill-rule:evenodd;clip-rule:evenodd;stroke-linejoin:round;stroke-miterlimit:2;">
    <style>
        path { fill: #2c1810; }
        @media (prefers-color-scheme: dark) {
            path { fill: #ffffff; }
        }
    </style>
    <g id="N-Last-Line" serif:id="N Last Line">
        <g transform="matrix(1.478085,0,0,1.478085,32.73534,-225.808699)">
            <path d="M334.18,309L334.18,308.512C334.18,296.333 336.257,250.512 326.641,250.512L325.359,250.512L325.359,249.23L349.129,249.23L349.126,250.873L347.129,250.512C337.684,252.477 340.485,294.221 340.587,309L334.18,309Z"/>
        </g>
        <g transform="matrix(1.478085,0,0,1.478085,32.73534,-225.808699)">
            <path d="M334.18,515.564L334.18,320L340.557,320L339.949,510.436L339.949,524.538L334.18,515.564Z"/>
        </g>
    </g>
    <g id="N-Middle-Line" serif:id="N Middle Line">
        <g transform="matrix(1.478085,0,0,1.478085,221.930234,-63.219337)">
            <path d="M177.805,471.974L177.128,518.769C177.128,521.907 177.811,525.387 178.998,528.65C181.449,535.387 186.049,541.205 191.231,541.205L191.231,542.487L142.513,542.487L142.513,541.205C148.923,541.205 152.769,533.513 154.692,528.384C156.615,523.256 156.615,518.128 156.615,512.359L156.615,373.52L177.52,405.237L177.769,468.769L177.805,468.769L177.805,471.974Z"/>
        </g>
        <path d="M488.541,466.166L454.045,411.656L453.421,398.473C453.421,389.946 453.421,382.366 450.579,374.786C447.736,367.206 442.051,355.836 432.576,355.836L432.576,353.941L504.586,353.941L504.586,355.836C494.163,355.836 488.541,376.945 488.541,391.158L488.541,466.166Z"/>
    </g>
    <path id="N-First-Line" serif:id="N First Line" d="M271.806,209.354L272.754,534.344C272.754,556.136 276.544,573.191 290.756,573.191L290.756,575.086L245.276,575.086L245.276,573.191L247.171,573.191C260.436,573.191 264.226,554.241 264.226,536.239L263.279,198.932L271.806,209.354Z"/>
    <g id="R-Curves" serif:id="R Curves">
        <g transform="matrix(1.478085,0,0,1.478085,221.930234,-63.219337)">
            <path d="M91.769,275.818C83.1,293.356 78.41,312.965 78.41,333.512C78.41,342.022 79.322,350.531 81.09,358.894C86.113,382.659 98.045,405.237 115.59,423.256C123.186,431.058 143.333,446.718 151.667,452.487L151.667,453.769C142.692,448.641 122.27,432.716 114.308,424.538C90.59,400.179 77.128,366.846 77.128,333.512C77.128,312.497 81.854,292.426 90.731,274.591L91.769,275.818Z"/>
        </g>
        <g transform="matrix(1.478085,0,0,1.478085,221.930234,-63.219337)">
            <path d="M251.009,462.68C251.383,462.575 251.756,462.467 252.128,462.359C259.18,459.795 266.231,457.231 273.282,454.025C279.693,450.179 286.103,446.333 292.513,441.205C321.359,418.769 330.975,375.82 330.975,342.487C330.975,267.487 283.539,205.307 211.103,205.307C172,205.307 138.667,218.769 113.667,244.41C112.379,245.771 111.122,247.158 109.898,248.57L109.106,247.346C110.378,245.913 111.684,244.506 113.026,243.128C138.026,217.487 172,203.384 211.103,203.384C304.052,203.384 352.129,271.333 352.129,344.41C352.129,371.333 343.795,398.256 330.975,416.205C316.231,435.436 297,449.538 275.846,458.513C268.962,461.642 262.077,464.16 254.596,466.067C253.394,464.941 252.199,463.814 251.009,462.68ZM240.058,478.807C239.81,478.663 239.56,478.522 239.308,478.384C232.898,474.538 227.128,473.256 219.436,472.615L209.821,471.974L183.393,471.974L183.393,468.769L204.051,468.769C212.798,468.769 221.368,468.239 229.762,467.087C234.405,472.619 238.093,476.823 240.058,478.807Z"/>
        </g>
    </g>
    <path id="N-Curve" serif:id="N Curve" d="M263.279,198.932C251.926,184.959 241.288,173.4 230.789,163.872C207.115,142.388 184.146,131.226 155.265,125.975C115.47,119.342 79.465,118.395 33.986,132.607L33.038,130.712C75.675,116.5 120.208,115.552 160.002,123.132C246.224,139.24 268.964,155.347 353.291,273.784C429.09,378.955 454.672,423.487 526.682,536.239L535.209,549.504L538.051,554.241C557.104,584.584 574.604,603.186 592.943,620.662C594.702,622.338 596.469,624.003 598.245,625.668C607.192,634.052 616.388,642.412 626.104,651.943C627.135,652.954 627.957,653.92 628.584,654.832C632.733,658.597 636.583,662.834 640.077,667.561C659.974,694.091 677.977,719.673 696.927,746.203L713.981,769.89C757.566,826.739 794.518,866.534 844.735,875.062C884.53,882.641 920.535,879.799 966.014,864.639L966.962,866.534C924.325,881.694 876.003,884.536 835.26,878.852L808.731,873.167C781.253,865.587 756.619,852.322 733.879,835.267C708.296,815.37 692.189,792.63 672.292,767.047C648.604,733.885 624.917,700.723 600.282,668.508C595.833,662.153 590.958,655.797 585.084,650.585C582.515,648.305 579.755,646.245 576.756,644.498C573.851,641.566 568.401,635.352 561.538,627.176C540.679,602.325 506.771,559.348 491.624,535.291C424.352,429.172 410.14,406.432 309.706,261.466L271.806,209.354L263.279,198.932Z"/>
</svg>
